<svg id="visual" viewBox="0 0 900 600" width="900" height="600" xmlns="http://www.w3.org/2000/svg" xmlns:xlink="http://www.w3.org/1999/xlink" version="1.1"><rect x="0" y="0" width="900" height="600" fill="#ffffff"></rect><path d="M593 600L605.7 580C618.3 560 643.7 520 652.5 480C661.3 440 653.7 400 619.2 360C584.7 320 523.3 280 511.2 240C499 200 536 160 548.5 120C561 80 549 40 543 20L537 0L900 0L900 20C900 40 900 80 900 120C900 160 900 200 900 240C900 280 900 320 900 360C900 400 900 440 900 480C900 520 900 560 900 580L900 600Z" fill="#000000" stroke-linecap="round" stroke-linejoin="miter"></path></svg>